<svg width="80" height="50" viewBox="0 0 80 50" fill="none" xmlns="http://www.w3.org/2000/svg">
<g filter="url(#filter0_d)">
<path d="M44 18.9022V38.5926C43.9996 39.2101 43.8359 39.816 43.5262 40.3462C43.2166 40.8764 42.7724 41.3111 42.2408 41.6045C41.7592 41.871 41.2189 42.007 40.6713 41.9997H30.6594C30.2174 41.9997 29.7935 41.8202 29.4809 41.5007C29.1684 41.1812 28.9928 40.7479 28.9928 40.296V30.0724C28.9928 29.6206 28.8172 29.1872 28.5046 28.8677C28.1921 28.5482 27.7682 28.3687 27.3261 28.3687H20.6595C20.2175 28.3687 19.7936 28.5482 19.481 28.8677C19.1684 29.1872 18.9928 29.6206 18.9928 30.0724V40.296C18.9928 40.7479 18.8173 41.1812 18.5047 41.5007C18.1921 41.8202 17.7682 41.9997 17.3262 41.9997H7.33395C6.8614 42.001 6.39404 41.8989 5.9632 41.7005C5.53236 41.5021 5.14799 41.2118 4.83584 40.8491C4.28789 40.2013 3.99068 39.371 4.00022 38.5146V18.902C4.00059 18.4272 4.0978 17.9578 4.28566 17.5237C4.47352 17.0895 4.7479 16.7002 5.09126 16.3805L21.7564 0.891223C22.3685 0.318046 23.1685 7.88543e-05 23.9987 1.46646e-08C24.8288 -7.88249e-05 25.6289 0.317737 26.2411 0.890798L42.9092 16.3807C43.2524 16.7004 43.5267 17.0898 43.7146 17.5239C43.9024 17.9581 43.9996 18.4275 44 18.9022Z" fill="url(#paint0_linear)"/>
<path d="M63.0896 0.488861C62.9894 0.33848 62.8535 0.215178 62.6941 0.129899C62.5348 0.0446196 62.3568 0 62.1761 0C61.9953 0 61.8174 0.0446196 61.658 0.129899C61.4987 0.215178 61.3628 0.33848 61.2625 0.488861L54.6745 10.371C54.5644 10.5363 54.5013 10.7284 54.4918 10.9268C54.4823 11.1252 54.5268 11.3224 54.6206 11.4975C54.7143 11.6726 54.8538 11.819 55.0242 11.9211C55.1945 12.0232 55.3894 12.0772 55.588 12.0773H55.8032L51.3629 19.1814C51.259 19.3476 51.2015 19.5386 51.1964 19.7345C51.1912 19.9304 51.2386 20.1242 51.3336 20.2956C51.4286 20.467 51.5678 20.6099 51.7367 20.7094C51.9056 20.8089 52.098 20.8613 52.294 20.8613H52.7134L49.1164 28.0555C49.0325 28.2229 48.9928 28.409 49.0011 28.596C49.0094 28.7831 49.0654 28.9649 49.1637 29.1242C49.2621 29.2836 49.3996 29.4151 49.5631 29.5063C49.7266 29.5975 49.9107 29.6454 50.098 29.6454H59.9801V35.1355H64.3721V29.6454H74.2542C74.4414 29.6454 74.6256 29.5975 74.7891 29.5063C74.9526 29.4151 75.0901 29.2836 75.1884 29.1242C75.2868 28.9649 75.3428 28.7831 75.3511 28.596C75.3594 28.409 75.3197 28.2229 75.2358 28.0555L71.6409 20.8613H72.0604C72.2564 20.8613 72.4488 20.8089 72.6177 20.7094C72.7866 20.6099 72.9257 20.467 73.0207 20.2956C73.1158 20.1242 73.1632 19.9304 73.158 19.7345C73.1529 19.5386 73.0954 19.3476 72.9915 19.1814L68.5489 12.0773H68.7641C68.9628 12.0772 69.1576 12.0232 69.328 11.9211C69.4984 11.819 69.6378 11.6726 69.7316 11.4975C69.8253 11.3224 69.8698 11.1252 69.8603 10.9268C69.8508 10.7284 69.7877 10.5363 69.6777 10.371L63.0896 0.488861Z" fill="url(#paint1_linear)"/>
</g>
<defs>
<filter id="filter0_d" x="0" y="0" width="79.3522" height="50" filterUnits="userSpaceOnUse" color-interpolation-filters="sRGB">
<feFlood flood-opacity="0" result="BackgroundImageFix"/>
<feColorMatrix in="SourceAlpha" type="matrix" values="0 0 0 0 0 0 0 0 0 0 0 0 0 0 0 0 0 0 127 0" result="hardAlpha"/>
<feOffset dy="4"/>
<feGaussianBlur stdDeviation="2"/>
<feComposite in2="hardAlpha" operator="out"/>
<feColorMatrix type="matrix" values="0 0 0 0 0 0 0 0 0 0 0 0 0 0 0 0 0 0 0.25 0"/>
<feBlend mode="normal" in2="BackgroundImageFix" result="effect1_dropShadow"/>
<feBlend mode="normal" in="SourceGraphic" in2="effect1_dropShadow" result="shape"/>
</filter>
<linearGradient id="paint0_linear" x1="23.8473" y1="64.8261" x2="-2.60731" y2="15.9971" gradientUnits="userSpaceOnUse">
<stop stop-color="#0043A7"/>
<stop offset="1" stop-color="#6377E3"/>
</linearGradient>
<linearGradient id="paint1_linear" x1="62.0755" y1="54.2308" x2="37.4023" y2="18.3667" gradientUnits="userSpaceOnUse">
<stop stop-color="#0043A7"/>
<stop offset="1" stop-color="#6377E3"/>
</linearGradient>
</defs>
</svg>
